<?xml version="1.0" encoding="utf-8"?>
<!-- Svg Vector Icons : http://www.onlinewebfonts.com/icon -->
<!DOCTYPE svg PUBLIC "-//W3C//DTD SVG 1.1//EN" "http://www.w3.org/Graphics/SVG/1.1/DTD/svg11.dtd">
<svg fill="#fff" version="1.1" xmlns="http://www.w3.org/2000/svg" xmlns:xlink="http://www.w3.org/1999/xlink" x="0px" y="0px" viewBox="0 0 1000 1000" enable-background="new 0 0 1000 1000" xml:space="preserve">
<metadata> Svg Vector Icons : http://www.onlinewebfonts.com/icon </metadata>
<g><path d="M587.6,828.1c0-103.5,83.8-187.3,187.3-187.3c36.9,0,71.2,10.8,100.2,29.2V74.2c0-35.5-28.8-64.2-64.2-64.2H126c-35.5,0-64.2,28.8-64.2,64.2v813.2c0,35.5,28.8,64.2,64.2,64.2h508.4C605.3,918.7,587.6,875.5,587.6,828.1L587.6,828.1z M233,263.2h470.8c11.8,0,21.4,9.6,21.4,21.4c0,11.8-9.6,21.4-21.4,21.4H233c-11.9,0-21.4-9.6-21.4-21.4C211.5,272.8,221.1,263.2,233,263.2L233,263.2z M233,449.6h470.8c11.8,0,21.4,9.6,21.4,21.4s-9.6,21.4-21.4,21.4H233c-11.9,0-21.4-9.6-21.4-21.4S221.1,449.6,233,449.6L233,449.6z M495.8,646.1h-271c-7.3,0-13.3-9.6-13.3-21.4c0-11.8,5.9-21.4,13.3-21.4h271c7.3,0,13.3,9.6,13.3,21.4C509.1,636.5,503.2,646.1,495.8,646.1L495.8,646.1z"/><path d="M774.8,666.1c-90.1,0-163.5,72.7-163.5,162c0,89.3,73.4,162,163.5,162c90.1,0,163.5-72.6,163.5-162C938.3,738.8,864.9,666.1,774.8,666.1z M844.9,772.7c6.5,5.2,7.4,14.7,2.2,21.1l-92.3,112.5l-57.5-67.3c-5.4-6.3-4.6-15.8,1.8-21.2c6.4-5.4,15.9-4.5,21.3,1.8l33.9,39.8l69.2-84.5C828.9,768.4,838.4,767.5,844.9,772.7L844.9,772.7z"/></g>
</svg>